<?xml version="1.0" encoding="UTF-8" standalone="no"?>
<!-- Created with Bouml (http://bouml.free.fr/) -->
<!DOCTYPE svg PUBLIC "-//W3C//DTD SVG 1.1//EN" "http://www.w3.org/Graphics/SVG/1.1/DTD/svg11.dtd">
<svg width="435" height="304" version="1.1" xmlns="http://www.w3.org/2000/svg">
<g>
	<ellipse fill="none" stroke="black" stroke-width="1" stroke-opacity="1" cx="38" cy="119" rx="6" ry="6" />
	<line stroke="black" stroke-opacity="1" x1="27" y1="131" x2="49" y2="131" />
	<line stroke="black" stroke-opacity="1" x1="38" y1="126" x2="38" y2="141" />
	<line stroke="black" stroke-opacity="1" x1="38" y1="141" x2="28" y2="152" />
	<line stroke="black" stroke-opacity="1" x1="38" y1="141" x2="48" y2="152" />
	<text font-family="Helvetica" font-size="10" fill="#000000" xml:space="preserve" text-anchor="middle" x="39" y="166">Serveur</text>
</g>
<g>
	<ellipse fill="none" stroke="black" stroke-width="1" stroke-opacity="1" cx="358" cy="120" rx="6" ry="6" />
	<line stroke="black" stroke-opacity="1" x1="347" y1="132" x2="369" y2="132" />
	<line stroke="black" stroke-opacity="1" x1="358" y1="127" x2="358" y2="142" />
	<line stroke="black" stroke-opacity="1" x1="358" y1="142" x2="348" y2="153" />
	<line stroke="black" stroke-opacity="1" x1="358" y1="142" x2="368" y2="153" />
	<text font-family="Helvetica" font-size="10" fill="#000000" xml:space="preserve" text-anchor="middle" x="359" y="167">Lecteur</text>
</g>
<g>
	<ellipse fill="none" stroke="black" stroke-width="1" stroke-opacity="1" cx="372" cy="236" rx="6" ry="6" />
	<line stroke="black" stroke-opacity="1" x1="361" y1="248" x2="383" y2="248" />
	<line stroke="black" stroke-opacity="1" x1="372" y1="243" x2="372" y2="258" />
	<line stroke="black" stroke-opacity="1" x1="372" y1="258" x2="362" y2="269" />
	<line stroke="black" stroke-opacity="1" x1="372" y1="258" x2="382" y2="269" />
	<text font-family="Helvetica" font-size="10" fill="#000000" xml:space="preserve" text-anchor="middle" x="373" y="283">InterfaceGraphique</text>
</g>
<g>
	<ellipse fill="none" stroke="black" stroke-width="1" stroke-opacity="1" cx="356" cy="6" rx="6" ry="6" />
	<line stroke="black" stroke-opacity="1" x1="345" y1="18" x2="367" y2="18" />
	<line stroke="black" stroke-opacity="1" x1="356" y1="13" x2="356" y2="28" />
	<line stroke="black" stroke-opacity="1" x1="356" y1="28" x2="346" y2="39" />
	<line stroke="black" stroke-opacity="1" x1="356" y1="28" x2="366" y2="39" />
	<text font-family="Helvetica" font-size="10" fill="#000000" xml:space="preserve" text-anchor="middle" x="357" y="53">Client</text>
</g>
<g>
	<line stroke="black" stroke-opacity="1" x1="358" y1="113" x2="358" y2="68" />
	<line stroke="black" stroke-opacity="1" x1="358" y1="62" x2="352" y2="68" />
	<line stroke="black" stroke-opacity="1" x1="358" y1="62" x2="364" y2="68" />
	<line stroke="black" stroke-opacity="1" x1="352" y1="68" x2="364" y2="68" />
</g>
<g>
	<text font-family="Helvetica" font-size="10" fill="#000000" xml:space="preserve" x="219" y="215">&lt;&lt;extend&gt;&gt;</text>
</g>
<g>
	<text font-family="Helvetica" font-size="10" fill="#000000" xml:space="preserve" x="219" y="90">&lt;&lt;include&gt;&gt;</text>
</g>
<g>
	<ellipse fill="#808080" stroke="none" cx="213" cy="147" rx="62" ry="28" />
	<ellipse fill="#ffffc0" stroke="black" stroke-width="1" stroke-opacity="1" cx="210" cy="144" rx="62" ry="28" />
</g>
<g>
	<ellipse fill="#808080" stroke="none" cx="223" cy="271" rx="60" ry="21" />
	<ellipse fill="#ffffc0" stroke="black" stroke-width="1" stroke-opacity="1" cx="220" cy="268" rx="60" ry="21" />
</g>
<g>
	<ellipse fill="#808080" stroke="none" cx="212" cy="32" rx="61" ry="25" />
	<ellipse fill="#ffffc0" stroke="black" stroke-width="1" stroke-opacity="1" cx="209" cy="29" rx="61" ry="25" />
</g>
<g>
	<text font-family="Helvetica" font-size="10" fill="#000000" xml:space="preserve" x="181" y="146">communiquer</text>
</g>
<g>
	<text font-family="Helvetica" font-size="10" fill="#000000" xml:space="preserve" x="190" y="31">connecter</text>
</g>
<g>
	<text font-family="Helvetica" font-size="10" fill="#000000" xml:space="preserve" x="198" y="274">informer</text>
</g>
<g>
	<line stroke="black" stroke-opacity="1" x1="62" y1="144" x2="147" y2="144" />
</g>
<g>
	<line stroke="black" stroke-opacity="1" x1="210" y1="56" x2="204" y2="62" />
	<line stroke="black" stroke-opacity="1" x1="210" y1="56" x2="216" y2="62" />
	<line stroke-dasharray="4,4" stroke="black" stroke-opacity="1" x1="210" y1="115" x2="210" y2="56" />
</g>
<g>
	<line stroke="black" stroke-opacity="1" x1="274" y1="145" x2="336" y2="145" />
</g>
<g>
	<line stroke="black" stroke-opacity="1" x1="62" y1="126" x2="193" y2="56" />
</g>
<g>
	<line stroke="black" stroke-opacity="1" x1="218" y1="246" x2="223" y2="239" />
	<line stroke="black" stroke-opacity="1" x1="218" y1="246" x2="211" y2="240" />
	<line stroke-dasharray="4,4" stroke="black" stroke-opacity="1" x1="212" y1="174" x2="218" y2="246" />
</g>
<g>
	<line stroke="black" stroke-opacity="1" x1="62" y1="160" x2="196" y2="246" />
</g>
<g>
	<line stroke="black" stroke-opacity="1" x1="272" y1="30" x2="336" y2="30" />
</g>
<g>
	<line stroke="black" stroke-opacity="1" x1="282" y1="265" x2="322" y2="265" />
</g>
</svg>
